<svg width="304" height="73" viewBox="0 0 304 73" fill="none" xmlns="http://www.w3.org/2000/svg">
<g clip-path="url(#clip0_2968_1186)">
<path d="M31.8808 29.7603C32.0578 30.0749 32.2349 30.3895 32.4135 30.7041C33.7508 33.0535 35.5102 35.0914 37.1542 37.2107C38.8504 39.3987 40.488 41.6251 41.7416 44.1117C44.3957 49.379 44.6486 54.8187 42.7217 60.3494C42.053 62.2675 41.1235 64.093 40.3126 65.96C40.2462 66.1133 40.1671 66.2603 40.0928 66.4104C40.1387 66.4455 40.1829 66.4791 40.2288 66.5142C40.8595 65.7747 41.5408 65.072 42.1146 64.2878C44.7782 60.6497 45.8516 56.518 45.8721 52.0317C45.8927 47.5088 44.4399 43.4793 42.023 39.7645C39.8557 36.4329 37.6031 33.1573 35.4154 29.8385C33.4868 26.911 31.7607 23.8686 30.5624 20.5498C28.9437 16.0716 28.5896 11.5406 30.0534 6.94575C30.8138 4.5565 31.9883 2.37806 33.4046 0.3242C33.4489 0.260316 33.4742 0.183656 33.5611 0.00158691C33.7161 0.416831 33.8093 0.664381 33.8994 0.911931C35.0945 4.1732 37.023 6.9745 39.4321 9.40209C42.1241 12.114 44.941 14.7012 47.7374 17.3077C50.676 20.0483 53.5799 22.8161 55.9431 26.1029C58.4708 29.6197 60.1622 33.4895 60.7518 37.8208C61.2482 41.467 60.9826 45.07 60.1764 48.6459C59.5504 51.42 58.6668 54.1096 57.5966 56.7384C57.5318 56.8981 57.4591 57.0546 57.2979 57.1935C57.3295 57.0434 57.3532 56.8917 57.3943 56.7432C58.4471 53.0044 58.9497 49.1921 58.7869 45.308C58.5593 39.9178 57.0718 34.9588 53.7048 30.6738C53.5815 30.5157 53.4471 30.3671 53.2385 30.2633C53.2717 30.3432 53.2969 30.4262 53.338 30.5013C55.4009 34.1618 56.5249 38.1131 56.9185 42.2911C57.4496 47.9496 56.6719 53.4036 54.2802 58.5638C50.9669 65.7077 45.4927 70.2578 37.9035 72.1759C34.7815 72.9649 31.6042 73.1182 28.4031 72.9265C28.2988 72.9201 28.1976 72.8866 28.0206 72.8515C28.4553 72.5496 28.8331 72.2973 29.2014 72.0306C33.0095 69.282 36.3085 66.0335 38.2418 61.667C41.0445 55.3361 41.084 48.935 38.0489 42.6568C36.8396 40.1541 35.3632 37.7825 34.0085 35.3501C33.1075 33.7322 32.3044 32.0728 31.8697 30.2569C31.8334 30.1052 31.8097 29.9503 31.7796 29.797C31.8128 29.7858 31.846 29.773 31.8792 29.7619L31.8808 29.7603Z" fill="#179079"/>
<path d="M30.5451 65.8626C31.4856 56.0964 25.0535 50.4938 19.0055 48.4319C19.8955 49.1043 20.9562 49.7894 21.8856 50.6247C25.3649 53.7534 27.6349 57.5928 28.264 62.3059C28.6703 65.3467 28.0791 68.1704 26.0288 70.5293C25.4028 71.2496 24.5903 71.8102 23.8395 72.4107C23.713 72.5113 23.4459 72.5001 23.2656 72.4538C17.8025 71.0484 13.0539 68.3541 9.06883 64.323C4.46881 59.6707 1.5444 54.0984 0.47581 47.6174C-1.01011 38.613 0.984815 30.4151 6.50325 23.1627C10.2623 18.2229 15.139 14.8115 20.9641 12.7768C21.1063 12.7273 21.2533 12.6953 21.3972 12.6554C21.4446 12.7129 21.492 12.772 21.5395 12.8295C21.2012 13.1138 20.8313 13.3661 20.5309 13.6871C17.4832 16.9436 15.1453 20.6393 13.8127 24.9386C12.5908 28.8819 12.4279 32.8634 13.4981 36.8737C13.5329 37.0063 13.5534 37.1436 13.6009 37.38C13.3069 37.2091 13.0855 37.0989 12.8848 36.96C10.1722 35.0834 8.81907 32.4162 8.46498 29.1741C8.27213 27.4125 8.45075 25.6717 8.79694 23.9437C8.82855 23.7824 8.85385 23.621 8.8823 23.4581C8.8412 23.4422 8.8001 23.4262 8.759 23.4118C8.48553 23.9229 8.18518 24.4212 7.94175 24.9466C6.6882 27.6441 6.17287 30.4295 7.0581 33.3537C7.70463 35.4875 9.05618 37.1309 10.6923 38.5651C12.7172 40.341 15.0678 41.5708 17.4737 42.7175C19.671 43.7652 21.8777 44.7969 24.0276 45.9388C26.5505 47.2804 28.6829 49.1251 30.289 51.5223C32.5779 54.9385 33.0174 58.6693 31.9314 62.5949C31.6168 63.7321 31.1284 64.8213 30.7189 65.9329L30.5466 65.8658L30.5451 65.8626Z" fill="#276C5F"/>
</g>
<path d="M95.375 46.615C95.375 47.245 95.15 47.74 94.745 48.055L93.98 48.73C93.665 49 93.26 49.135 92.81 49.135C92.225 49.135 91.775 48.91 91.415 48.505L82.01 37.435V47.2C82.01 48.145 81.155 49 80.21 49H79.175C78.23 49 77.375 48.145 77.375 47.2V20.38C77.375 19.435 78.23 18.58 79.175 18.58H82.01V29.785L90.425 19.12C90.83 18.625 91.28 18.4 91.82 18.4C92.225 18.4 92.54 18.535 92.855 18.805L95.105 20.56L84.845 33.565L94.97 45.535C95.24 45.85 95.375 46.21 95.375 46.615ZM103.097 20.38V49H100.262C99.3174 49 98.4624 48.145 98.4624 47.2V20.38C98.4624 19.435 99.3174 18.58 100.262 18.58H101.297C102.242 18.58 103.097 19.435 103.097 20.38ZM113.952 20.38V22.495C113.952 23.44 113.097 24.295 112.152 24.295H111.117C110.172 24.295 109.317 23.44 109.317 22.495V20.38C109.317 19.435 110.172 18.58 111.117 18.58H112.152C113.097 18.58 113.952 19.435 113.952 20.38ZM113.952 29.47V47.2C113.952 48.145 113.097 49 112.152 49H111.117C110.172 49 109.317 48.145 109.317 47.2V29.47C109.317 28.525 110.172 27.67 111.117 27.67H112.152C113.097 27.67 113.952 28.525 113.952 29.47ZM144.921 32.98V47.2C144.921 48.145 144.066 49 143.121 49H142.086C141.141 49 140.286 48.145 140.286 47.2V33.745C140.286 32.665 139.431 31.81 138.351 31.81H136.596C135.516 31.81 134.661 32.665 134.661 33.745V47.2C134.661 48.145 133.806 49 132.861 49H131.826C130.881 49 130.026 48.145 130.026 47.2V33.745C130.026 32.665 129.171 31.81 128.091 31.81H126.336C125.256 31.81 124.401 32.665 124.401 33.745V47.2C124.401 48.145 123.546 49 122.601 49H121.566C120.621 49 119.766 48.145 119.766 47.2V29.335C119.766 28.57 120.306 27.67 121.386 27.67H122.916L124.041 29.29C124.266 29.605 124.491 29.74 124.761 29.74C125.076 29.74 125.526 29.47 126.111 28.975C127.146 28.075 127.956 27.535 129.396 27.535H129.711C131.376 27.535 132.186 28.075 133.221 29.02C133.761 29.515 134.166 29.74 134.436 29.74C135.111 29.74 135.561 29.425 136.326 28.84C137.451 27.985 138.261 27.535 139.566 27.535H139.836C142.941 27.535 144.921 29.875 144.921 32.98ZM165.158 32.935V47.335C165.158 48.1 164.618 49 163.538 49H162.008L160.928 47.425C160.748 47.155 160.478 47.02 160.118 47.02C159.803 47.02 159.398 47.245 158.813 47.74C157.778 48.595 156.923 49.135 155.438 49.135H154.808C153.278 49.135 152.018 48.595 151.028 47.515C150.038 46.435 149.543 45.13 149.543 43.645V40.675C149.543 39.19 150.038 37.885 151.028 36.85C152.018 35.77 153.278 35.23 154.808 35.23H155.438C156.923 35.23 157.778 35.77 158.813 36.715C159.398 37.21 159.803 37.435 160.118 37.435C160.388 37.435 160.523 37.165 160.523 36.67V33.565C160.523 32.62 159.758 31.81 158.723 31.81H151.163V29.02C151.163 28.165 151.883 27.67 152.918 27.67H159.398C163.223 27.67 165.158 29.83 165.158 32.935ZM160.523 42.925V41.44C160.523 40.36 159.668 39.505 158.588 39.505H156.113C155.033 39.505 154.178 40.36 154.178 41.44V42.925C154.178 44.005 155.033 44.86 156.113 44.86H158.588C159.668 44.86 160.523 44.005 160.523 42.925ZM192.427 36.175V37.165C192.427 38.02 191.662 38.74 190.807 38.74H180.592C179.737 38.74 179.017 38.02 179.017 37.165V36.175C179.017 35.32 179.737 34.6 180.592 34.6H190.807C191.662 34.6 192.427 35.32 192.427 36.175ZM226.05 18.58V47.2C226.05 48.145 225.195 49 224.25 49H223.215C222.27 49 221.415 48.145 221.415 47.2V27.085C221.37 27.445 221.055 28.435 220.47 29.515L217.59 34.825H216.375C215.7 34.825 215.25 34.375 214.935 33.88L212.55 29.515C211.965 28.435 211.65 27.445 211.605 27.085V47.2C211.605 48.145 210.75 49 209.805 49H208.77C207.825 49 206.97 48.145 206.97 47.2V20.425C206.97 19.345 207.555 18.58 208.59 18.58H209.94C210.615 18.58 211.155 18.94 211.56 19.66L216.51 28.66L221.46 19.66C221.865 18.94 222.405 18.58 223.08 18.58H226.05ZM247.75 33.295V37.3C247.75 38.875 246.535 40.09 244.96 40.09H236.77V43.015C236.77 44.095 237.58 44.86 238.615 44.86H245.455V47.38C245.455 48.325 244.69 49 243.655 49H237.76C236.185 49 234.88 48.46 233.755 47.38C232.675 46.255 232.135 44.95 232.135 43.375V33.295C232.135 31.72 232.675 30.415 233.755 29.335C234.88 28.21 236.185 27.67 237.76 27.67H242.125C243.7 27.67 245.005 28.21 246.085 29.335C247.21 30.415 247.75 31.72 247.75 33.295ZM236.77 36.355H243.115V33.61C243.115 32.665 242.26 31.81 241.315 31.81H238.57C237.625 31.81 236.77 32.665 236.77 33.61V36.355ZM266.034 29.29V31.81H258.654C257.754 31.81 256.809 32.62 256.809 33.7V47.2C256.809 48.145 255.954 49 255.009 49H253.974C253.029 49 252.174 48.145 252.174 47.2V29.335C252.174 28.57 252.714 27.67 253.794 27.67H255.324L256.449 29.29C256.674 29.605 256.899 29.74 257.169 29.74C257.394 29.74 257.754 29.515 258.249 29.065C259.194 28.21 259.959 27.67 261.399 27.67H264.234C265.269 27.67 266.034 28.345 266.034 29.29ZM276.996 37.165L284.061 47.29L281.811 48.82C281.496 49.045 281.181 49.135 280.776 49.135C280.146 49.135 279.651 48.865 279.291 48.37L273.756 40.405L272.541 41.62V47.2C272.541 48.145 271.686 49 270.741 49H269.706C268.761 49 267.906 48.145 267.906 47.2V20.425C267.906 19.39 268.761 18.58 269.706 18.58H272.541V35.365L279.831 28.075C280.191 27.715 280.596 27.535 281.091 27.535C281.586 27.535 281.991 27.715 282.351 28.075L283.116 28.795C283.431 29.11 283.611 29.47 283.611 29.875C283.611 30.325 283.431 30.73 283.026 31.135L276.996 37.165ZM300.346 41.62V43.375C300.346 44.95 299.806 46.255 298.681 47.38C297.556 48.46 296.251 49 294.676 49H287.836C286.801 49 286.036 48.325 286.036 47.38V44.86H293.641C294.901 44.86 295.666 43.825 295.666 42.61C295.666 41.215 294.946 40.045 293.641 40.045H290.896C287.881 40.045 285.766 38.02 285.766 35.005V33.295C285.766 31.72 286.306 30.415 287.386 29.335C288.511 28.21 289.816 27.67 291.391 27.67H297.241C298.276 27.67 298.996 28.345 298.996 29.29V31.81H292.426C291.166 31.81 290.446 32.845 290.446 34.105C290.446 35.32 291.166 36.355 292.426 36.355H295.261C298.321 36.355 300.346 38.515 300.346 41.62Z" fill="#2D2D2D"/>
<path d="M77.9905 59.4185C78.8936 58.4043 80.1197 57.8972 81.6687 57.8972C83.2177 57.8972 84.4438 58.4043 85.3469 59.4185C86.2501 60.4326 86.7017 61.8075 86.7017 63.5432C86.7017 65.2789 86.2501 66.6538 85.3469 67.668C84.4438 68.6771 83.2177 69.1816 81.6687 69.1816C80.1197 69.1816 78.8936 68.6771 77.9905 67.668C77.0873 66.6538 76.6357 65.2789 76.6357 63.5432C76.6357 61.8075 77.0873 60.4326 77.9905 59.4185ZM84.3176 60.3418C83.6667 59.5496 82.7838 59.1536 81.6687 59.1536C80.5536 59.1536 79.6681 59.5496 79.0122 60.3418C78.3613 61.1289 78.0359 62.196 78.0359 63.5432C78.0359 64.8853 78.3613 65.9525 79.0122 66.7446C79.6681 67.5317 80.5536 67.9253 81.6687 67.9253C82.7838 67.9253 83.6667 67.5317 84.3176 66.7446C84.9736 65.9525 85.3015 64.8853 85.3015 63.5432C85.3015 62.196 84.9736 61.1289 84.3176 60.3418ZM94.6484 61.1289L91.7573 69H90.4102L87.5115 61.1289H88.8965L91.0686 67.5999H91.0989L93.2786 61.1289H94.6484ZM95.7534 69V58.0789H97.0703V69H95.7534ZM101.445 68.0161C102.065 68.0161 102.585 67.8244 103.004 67.4409C103.428 67.0524 103.64 66.5756 103.64 66.0105V65.3672L101.536 65.4958C101.006 65.5312 100.595 65.6598 100.302 65.8818C100.014 66.1038 99.8706 66.4015 99.8706 66.7749C99.8706 67.1483 100.014 67.4485 100.302 67.6755C100.59 67.9026 100.971 68.0161 101.445 68.0161ZM101.15 69.1362C100.368 69.1362 99.7344 68.9193 99.25 68.4854C98.7707 68.0514 98.531 67.4813 98.531 66.7749C98.531 66.0988 98.7782 65.5589 99.2727 65.1553C99.7722 64.7516 100.476 64.5246 101.384 64.4741L103.64 64.3455V63.687C103.64 63.2077 103.488 62.8318 103.186 62.5593C102.883 62.2869 102.459 62.1506 101.914 62.1506C101.415 62.1506 101.008 62.2616 100.696 62.4836C100.383 62.7006 100.183 63.0059 100.098 63.3994H98.8262C98.8716 62.6981 99.1743 62.1229 99.7344 61.6738C100.299 61.2197 101.036 60.9927 101.944 60.9927C102.868 60.9927 103.599 61.2248 104.139 61.689C104.684 62.1532 104.957 62.7763 104.957 63.5583V69H103.708V67.6453H103.677C103.44 68.0943 103.092 68.4551 102.633 68.7275C102.174 69 101.679 69.1362 101.15 69.1362ZM106.493 63.301C106.493 62.6249 106.765 62.0724 107.31 61.6436C107.86 61.2096 108.567 60.9927 109.429 60.9927C110.242 60.9927 110.918 61.2096 111.458 61.6436C111.998 62.0775 112.283 62.6274 112.313 63.2935H111.057C111.011 62.91 110.84 62.6098 110.542 62.3928C110.249 62.1759 109.863 62.0674 109.384 62.0674C108.905 62.0674 108.519 62.1759 108.226 62.3928C107.933 62.6047 107.787 62.8848 107.787 63.2329C107.787 63.7677 108.224 64.1462 109.096 64.3682L110.315 64.6633C111.107 64.8652 111.665 65.1275 111.988 65.4504C112.316 65.7683 112.479 66.2174 112.479 66.7976C112.479 67.4838 112.187 68.0464 111.602 68.4854C111.016 68.9193 110.264 69.1362 109.346 69.1362C108.488 69.1362 107.78 68.9243 107.219 68.5005C106.664 68.0716 106.352 67.5065 106.281 66.8052H107.598C107.744 67.6427 108.355 68.0615 109.429 68.0615C109.959 68.0615 110.378 67.9581 110.686 67.7512C110.999 67.5393 111.155 67.2542 111.155 66.896C111.155 66.6134 111.062 66.3889 110.875 66.2224C110.693 66.0559 110.383 65.9146 109.944 65.7986L108.559 65.4429C107.182 65.0897 106.493 64.3757 106.493 63.301ZM109.937 59.9937H108.922L106.864 57.7231H108.097L109.407 59.2065H109.452L110.761 57.7231H111.995L109.937 59.9937ZM114.273 59.2292H115.59V61.1289H117.119V62.2112H115.59V66.8884C115.59 67.2467 115.668 67.5116 115.825 67.6831C115.981 67.8496 116.228 67.9329 116.566 67.9329C116.778 67.9329 116.96 67.9202 117.111 67.895V69C116.94 69.0404 116.662 69.0605 116.279 69.0605C115.557 69.0605 115.043 68.8991 114.735 68.5762C114.427 68.2533 114.273 67.7134 114.273 66.9565V62.2112H113.1V61.1289H114.273V59.2292ZM121.456 62.1355C120.845 62.1355 120.338 62.3474 119.934 62.7712C119.536 63.19 119.316 63.7299 119.276 64.3909H123.552C123.537 63.7249 123.338 63.1825 122.954 62.7637C122.571 62.3449 122.071 62.1355 121.456 62.1355ZM123.522 66.7446H124.816C124.7 67.4409 124.337 68.0136 123.726 68.4626C123.121 68.9117 122.392 69.1362 121.539 69.1362C120.414 69.1362 119.528 68.7729 118.882 68.0464C118.236 67.3198 117.914 66.3359 117.914 65.0947C117.914 63.8636 118.236 62.8722 118.882 62.1204C119.533 61.3686 120.399 60.9927 121.478 60.9927C122.538 60.9927 123.375 61.3484 123.991 62.0598C124.607 62.7712 124.914 63.7249 124.914 64.9207V65.4202H119.268V65.4958C119.268 66.2527 119.475 66.8582 119.889 67.3123C120.303 67.7664 120.863 67.9934 121.569 67.9934C122.064 67.9934 122.485 67.8799 122.833 67.6528C123.181 67.4258 123.411 67.123 123.522 66.7446ZM126.246 69V61.1289H127.488V62.3853H127.518C127.745 61.9463 128.07 61.6057 128.494 61.3635C128.918 61.1163 129.425 60.9927 130.015 60.9927C130.873 60.9927 131.542 61.2525 132.021 61.7722C132.5 62.2869 132.74 62.9932 132.74 63.8914V69H131.423V64.126C131.423 63.4852 131.272 62.9983 130.969 62.6653C130.666 62.3272 130.215 62.1582 129.614 62.1582C128.994 62.1582 128.497 62.36 128.123 62.7637C127.75 63.1673 127.563 63.7021 127.563 64.3682V69H126.246ZM134.488 69V61.1289H135.805V69H134.488ZM135.147 59.8044C134.925 59.8044 134.733 59.7237 134.572 59.5623C134.41 59.4008 134.329 59.2091 134.329 58.9871C134.329 58.76 134.41 58.5683 134.572 58.4119C134.733 58.2504 134.925 58.1697 135.147 58.1697C135.374 58.1697 135.568 58.2504 135.729 58.4119C135.891 58.5683 135.972 58.76 135.972 58.9871C135.972 59.2091 135.891 59.4008 135.729 59.5623C135.568 59.7237 135.374 59.8044 135.147 59.8044ZM145.47 69H144.123L140.096 58.0789H141.527L144.774 67.3425H144.819L148.066 58.0789H149.496L145.47 69ZM152.001 68.0161C152.622 68.0161 153.142 67.8244 153.561 67.4409C153.984 67.0524 154.196 66.5756 154.196 66.0105V65.3672L152.092 65.4958C151.562 65.5312 151.151 65.6598 150.859 65.8818C150.571 66.1038 150.427 66.4015 150.427 66.7749C150.427 67.1483 150.571 67.4485 150.859 67.6755C151.146 67.9026 151.527 68.0161 152.001 68.0161ZM151.706 69.1362C150.924 69.1362 150.291 68.9193 149.807 68.4854C149.327 68.0514 149.088 67.4813 149.088 66.7749C149.088 66.0988 149.335 65.5589 149.829 65.1553C150.329 64.7516 151.033 64.5246 151.941 64.4741L154.196 64.3455V63.687C154.196 63.2077 154.045 62.8318 153.742 62.5593C153.439 62.2869 153.016 62.1506 152.471 62.1506C151.971 62.1506 151.565 62.2616 151.252 62.4836C150.939 62.7006 150.74 63.0059 150.654 63.3994H149.383C149.428 62.6981 149.731 62.1229 150.291 61.6738C150.856 61.2197 151.593 60.9927 152.501 60.9927C153.424 60.9927 154.156 61.2248 154.696 61.689C155.241 62.1532 155.513 62.7763 155.513 63.5583V69H154.264V67.6453H154.234C153.997 68.0943 153.649 68.4551 153.19 68.7275C152.731 69 152.236 69.1362 151.706 69.1362ZM157.254 69V61.1289H158.571V69H157.254ZM157.912 59.8044C157.69 59.8044 157.499 59.7237 157.337 59.5623C157.176 59.4008 157.095 59.2091 157.095 58.9871C157.095 58.76 157.176 58.5683 157.337 58.4119C157.499 58.2504 157.69 58.1697 157.912 58.1697C158.139 58.1697 158.334 58.2504 158.495 58.4119C158.657 58.5683 158.737 58.76 158.737 58.9871C158.737 59.2091 158.657 59.4008 158.495 59.5623C158.334 59.7237 158.139 59.8044 157.912 59.8044ZM160.417 69V58.0789H161.734V69H160.417ZM163.581 69V58.0789H164.898V69H163.581ZM169.272 68.0161C169.893 68.0161 170.413 67.8244 170.832 67.4409C171.255 67.0524 171.467 66.5756 171.467 66.0105V65.3672L169.363 65.4958C168.833 65.5312 168.422 65.6598 168.13 65.8818C167.842 66.1038 167.698 66.4015 167.698 66.7749C167.698 67.1483 167.842 67.4485 168.13 67.6755C168.417 67.9026 168.798 68.0161 169.272 68.0161ZM168.977 69.1362C168.195 69.1362 167.562 68.9193 167.078 68.4854C166.598 68.0514 166.359 67.4813 166.359 66.7749C166.359 66.0988 166.606 65.5589 167.1 65.1553C167.6 64.7516 168.304 64.5246 169.212 64.4741L171.467 64.3455V63.687C171.467 63.2077 171.316 62.8318 171.013 62.5593C170.71 62.2869 170.287 62.1506 169.742 62.1506C169.242 62.1506 168.836 62.2616 168.523 62.4836C168.21 62.7006 168.011 63.0059 167.925 63.3994H166.654C166.699 62.6981 167.002 62.1229 167.562 61.6738C168.127 61.2197 168.864 60.9927 169.772 60.9927C170.695 60.9927 171.427 61.2248 171.967 61.689C172.512 62.1532 172.784 62.7763 172.784 63.5583V69H171.535V67.6453H171.505C171.268 68.0943 170.92 68.4551 170.461 68.7275C170.002 69 169.507 69.1362 168.977 69.1362ZM174.457 69V61.1289H175.698V62.3853H175.728C175.955 61.9463 176.281 61.6057 176.705 61.3635C177.128 61.1163 177.635 60.9927 178.226 60.9927C179.084 60.9927 179.752 61.2525 180.231 61.7722C180.711 62.2869 180.95 62.9932 180.95 63.8914V69H179.634V64.126C179.634 63.4852 179.482 62.9983 179.179 62.6653C178.877 62.3272 178.425 62.1582 177.825 62.1582C177.204 62.1582 176.707 62.36 176.334 62.7637C175.96 63.1673 175.774 63.7021 175.774 64.3682V69H174.457ZM183.054 59.2292H184.371V61.1289H185.9V62.2112H184.371V66.8884C184.371 67.2467 184.45 67.5116 184.606 67.6831C184.762 67.8496 185.01 67.9329 185.348 67.9329C185.56 67.9329 185.741 67.9202 185.893 67.895V69C185.721 69.0404 185.444 69.0605 185.06 69.0605C184.339 69.0605 183.824 68.8991 183.516 68.5762C183.208 68.2533 183.054 67.7134 183.054 66.9565V62.2112H181.881V61.1289H183.054V59.2292ZM194.309 60.9927C195.318 60.9927 196.13 61.3635 196.746 62.1052C197.366 62.8469 197.677 63.8333 197.677 65.0645C197.677 66.2905 197.369 67.2769 196.753 68.0237C196.138 68.7654 195.333 69.1362 194.339 69.1362C193.784 69.1362 193.287 69.0101 192.848 68.7578C192.409 68.5055 192.071 68.1599 191.834 67.7209H191.803V71.6262H190.487V61.1289H191.735V62.4609H191.766C192.013 62.0068 192.358 61.6486 192.802 61.3862C193.247 61.1239 193.749 60.9927 194.309 60.9927ZM194.051 67.9783C194.753 67.9783 195.308 67.7159 195.716 67.1912C196.125 66.6664 196.329 65.9575 196.329 65.0645C196.329 64.1714 196.125 63.4625 195.716 62.9377C195.308 62.413 194.753 62.1506 194.051 62.1506C193.375 62.1506 192.83 62.4181 192.417 62.9529C192.003 63.4877 191.796 64.1916 191.796 65.0645C191.796 65.9424 192.003 66.6488 192.417 67.1836C192.83 67.7134 193.375 67.9783 194.051 67.9783ZM201.604 68.0161C202.225 68.0161 202.745 67.8244 203.164 67.4409C203.587 67.0524 203.799 66.5756 203.799 66.0105V65.3672L201.695 65.4958C201.166 65.5312 200.754 65.6598 200.462 65.8818C200.174 66.1038 200.03 66.4015 200.03 66.7749C200.03 67.1483 200.174 67.4485 200.462 67.6755C200.749 67.9026 201.13 68.0161 201.604 68.0161ZM201.309 69.1362C200.527 69.1362 199.894 68.9193 199.41 68.4854C198.93 68.0514 198.691 67.4813 198.691 66.7749C198.691 66.0988 198.938 65.5589 199.432 65.1553C199.932 64.7516 200.636 64.5246 201.544 64.4741L203.799 64.3455V63.687C203.799 63.2077 203.648 62.8318 203.345 62.5593C203.042 62.2869 202.619 62.1506 202.074 62.1506C201.574 62.1506 201.168 62.2616 200.855 62.4836C200.542 62.7006 200.343 63.0059 200.257 63.3994H198.986C199.031 62.6981 199.334 62.1229 199.894 61.6738C200.459 61.2197 201.196 60.9927 202.104 60.9927C203.027 60.9927 203.759 61.2248 204.299 61.689C204.844 62.1532 205.116 62.7763 205.116 63.5583V69H203.867V67.6453H203.837C203.6 68.0943 203.252 68.4551 202.793 68.7275C202.334 69 201.839 69.1362 201.309 69.1362ZM206.789 69V61.1289H208.03V62.4155H208.06C208.191 61.9766 208.426 61.6309 208.764 61.3787C209.107 61.1213 209.508 60.9927 209.968 60.9927C210.073 60.9927 210.25 61.0103 210.497 61.0457V62.3247C210.356 62.2743 210.121 62.249 209.793 62.249C209.284 62.249 208.875 62.4181 208.567 62.7561C208.26 63.0942 208.106 63.5407 208.106 64.0957V69H206.789ZM211.996 59.2292H213.313V61.1289H214.842V62.2112H213.313V66.8884C213.313 67.2467 213.391 67.5116 213.547 67.6831C213.704 67.8496 213.951 67.9329 214.289 67.9329C214.501 67.9329 214.683 67.9202 214.834 67.895V69C214.662 69.0404 214.385 69.0605 214.001 69.0605C213.28 69.0605 212.765 68.8991 212.458 68.5762C212.15 68.2533 211.996 67.7134 211.996 66.9565V62.2112H210.823V61.1289H211.996V59.2292ZM216.249 69V61.1289H217.49V62.3853H217.521C217.748 61.9463 218.073 61.6057 218.497 61.3635C218.921 61.1163 219.428 60.9927 220.018 60.9927C220.876 60.9927 221.545 61.2525 222.024 61.7722C222.503 62.2869 222.743 62.9932 222.743 63.8914V69H221.426V64.126C221.426 63.4852 221.275 62.9983 220.972 62.6653C220.669 62.3272 220.218 62.1582 219.617 62.1582C218.997 62.1582 218.5 62.36 218.126 62.7637C217.753 63.1673 217.566 63.7021 217.566 64.3682V69H216.249ZM227.579 62.1355C226.969 62.1355 226.462 62.3474 226.058 62.7712C225.659 63.19 225.44 63.7299 225.399 64.3909H229.676C229.66 63.7249 229.461 63.1825 229.078 62.7637C228.694 62.3449 228.195 62.1355 227.579 62.1355ZM229.645 66.7446H230.939C230.823 67.4409 230.46 68.0136 229.85 68.4626C229.244 68.9117 228.515 69.1362 227.662 69.1362C226.537 69.1362 225.652 68.7729 225.006 68.0464C224.36 67.3198 224.037 66.3359 224.037 65.0947C224.037 63.8636 224.36 62.8722 225.006 62.1204C225.657 61.3686 226.522 60.9927 227.602 60.9927C228.661 60.9927 229.499 61.3484 230.115 62.0598C230.73 62.7712 231.038 63.7249 231.038 64.9207V65.4202H225.392V65.4958C225.392 66.2527 225.599 66.8582 226.012 67.3123C226.426 67.7664 226.986 67.9934 227.693 67.9934C228.187 67.9934 228.608 67.8799 228.957 67.6528C229.305 67.4258 229.534 67.123 229.645 66.7446ZM232.37 69V61.1289H233.611V62.4155H233.641C233.773 61.9766 234.007 61.6309 234.345 61.3787C234.688 61.1213 235.089 60.9927 235.549 60.9927C235.655 60.9927 235.831 61.0103 236.078 61.0457V62.3247C235.937 62.2743 235.702 62.249 235.375 62.249C234.865 62.249 234.456 62.4181 234.148 62.7561C233.841 63.0942 233.687 63.5407 233.687 64.0957V69H232.37Z" fill="#179079"/>
<defs>
<clipPath id="clip0_2968_1186">
<rect width="61" height="73" fill="white"/>
</clipPath>
</defs>
</svg>
